<?xml version="1.0" standalone="no"?>
<!DOCTYPE svg PUBLIC "-//W3C//DTD SVG 20010904//EN"
 "http://www.w3.org/TR/2001/REC-SVG-20010904/DTD/svg10.dtd">
<svg version="1.0" xmlns="http://www.w3.org/2000/svg"
 width="512.000000pt" height="512.000000pt" viewBox="0 0 512.000000 512.000000"
 preserveAspectRatio="xMidYMid meet">

<g transform="translate(0.000000,512.000000) scale(0.100000,-0.100000)"
fill="#000000" stroke="none">
<path d="M1220 3995 l0 -225 475 0 475 0 0 225 0 225 -475 0 -475 0 0 -225z"/>
<path d="M564 3598 c-100 -75 -240 -220 -310 -323 -299 -439 -336 -972 -98
-1437 97 -190 237 -356 405 -481 l76 -57 1924 0 1924 0 70 52 c393 294 610
790 556 1268 -44 385 -228 713 -536 957 l-79 63 -183 0 -183 0 0 -770 0 -770
-60 0 -60 0 0 120 0 120 -505 0 -505 0 0 -120 0 -120 -60 0 -60 0 0 775 0 775
-1124 0 -1123 0 -69 -52z"/>
<path d="M3000 3505 l0 -145 505 0 505 0 0 145 0 145 -505 0 -505 0 0 -145z"/>
<path d="M3000 3080 l0 -160 505 0 505 0 0 160 0 160 -505 0 -505 0 0 -160z"/>
<path d="M3000 2630 l0 -160 505 0 505 0 0 160 0 160 -505 0 -505 0 0 -160z"/>
</g>
</svg>
